<?xml version="1.0" standalone="no"?><!DOCTYPE svg PUBLIC "-//W3C//DTD SVG 1.1//EN"
        "http://www.w3.org/Graphics/SVG/1.1/DTD/svg11.dtd">
<svg t="1638520759280" class="icon" viewBox="0 0 1024 1024" version="1.1" xmlns="http://www.w3.org/2000/svg" p-id="1242"
     width="32" height="32">
    <defs>
        <style type="text/css"></style>
    </defs>
    <path d="M512 938.666667C276.362667 938.666667 85.333333 747.637333 85.333333 512S276.362667 85.333333 512 85.333333s426.666667 191.029333 426.666667 426.666667-191.029333 426.666667-426.666667 426.666667z m0-64c200.298667 0 362.666667-162.368 362.666667-362.666667S712.298667 149.333333 512 149.333333 149.333333 311.701333 149.333333 512s162.368 362.666667 362.666667 362.666667zM352 480h320a32 32 0 0 1 0 64H352a32 32 0 0 1 0-64z"
          p-id="1243" fill="#707070"></path>
</svg>